# xmcd
#
# Track frame offsets: 
#        150
#        13129
#        24657
#        44663
#        58438
#        74404
#        95475
#        108822
#        123679
#        135552
#        151089
#        165518
#        186381
#
# Disc length: 2627 seconds
#
# Revision: 0
# Processed by: cddbd v1.5.2PL0 Copyright (c) Steve Scherf et al.
# Submitted via: ExactAudioCopy v1.0b3
#
DISCID=b90a410d
DTITLE=Geyer - Schwarz - Project - Heart and Soul
DYEAR=1996
DGENRE=Blues
TTITLE0=Take me back
TTITLE1=The bear
TTITLE2=Stormy monday
TTITLE3=Sweet home Chicago
TTITLE4=Monday Blues
TTITLE5=Knockin' on heaven's door
TTITLE6=Honky tonk woman
TTITLE7=Suzy Q
TTITLE8=Gospel ship
TTITLE9=I'm so sorry
TTITLE10=Go away
TTITLE11=Corrina
TTITLE12=One scotch,one bourbon
EXTD=
EXTT0=
EXTT1=
EXTT2=
EXTT3=
EXTT4=
EXTT5=
EXTT6=
EXTT7=
EXTT8=
EXTT9=
EXTT10=
EXTT11=
EXTT12=
PLAYORDER=
